Coordinates
version=1
nRows=5
nColumns=42
inDegrees=yes

Units are S.I. units (second, meters, Newtons, ...)
If the header above contains a line with 'inDegrees', this indicates whether rotational values are in degrees (yes) or radians (no).

endheader
time	pelvis_tilt	pelvis_list	pelvis_rotation	pelvis_tx	pelvis_ty	pelvis_tz	hip_flexion_r	hip_adduction_r	hip_rotation_r	knee_angle_r	knee_adduction_r	knee_angle_r_beta	ankle_angle_r	subtalar_angle_r	mtp_angle_r	hip_flexion_l	hip_adduction_l	hip_rotation_l	knee_angle_l	knee_adduction_l	knee_angle_l_beta	ankle_angle_l	subtalar_angle_l	mtp_angle_l	lumbar_extension	lumbar_bending	lumbar_rotation	arm_flex_r	arm_add_r	arm_rot_r	elbow_flex_r	pro_sup_r	wrist_flex_r	wrist_dev_r	arm_flex_l	arm_add_l	arm_rot_l	elbow_flex_l	pro_sup_l	wrist_flex_l	wrist_dev_l
      0.00000000	      3.73879667	      7.72259958	     90.04267971	      0.45946911	      0.96269286	     -0.72268955	    -22.86956009	      4.28182161	     -3.90078471	      9.46606855	      5.96791786	      0.16521406	      6.87696271	      2.04380231	    -18.99201156	     15.17291454	     -4.53221909	     -5.09913107	      1.93070521	      5.46256159	      0.03369716	      3.93263596	     -0.24396308	    -13.65015796	    -19.96697337	      6.76028645	      5.21257777	     17.04147282	    -20.14238440	     -5.07818518	     61.64424796	     90.00000001	      0.00000000	      0.00000000	     -8.86148351	     -7.34755282	      2.24382269	     30.84123526	     90.00000001	      0.00000000	      0.00000000
      0.01000000	      4.20559604	      7.38710155	     90.29237545	      0.45827162	      0.95967988	     -0.72190229	    -22.99631076	      4.75888224	     -4.39352849	     10.21524422	      5.96791786	      0.17828965	      6.95204606	      2.35083798	    -19.24614634	     15.70236973	     -4.89044728	     -5.11255446	      1.11884125	      5.46256159	      0.01952746	      4.31969838	      0.92977917	    -13.82352686	    -19.65798780	      7.36733971	      4.95163688	     17.47138179	    -20.27969647	     -4.93055199	     62.15164764	     90.00000001	      0.00000000	      0.00000000	     -9.05011022	     -7.27705797	      2.32204572	     30.46836397	     90.00000001	      0.00000000	      0.00000000
      0.02000000	      4.39136969	      7.01249849	     90.26706459	      0.45726140	      0.95681086	     -0.72193980	    -22.85575415	      4.72632328	     -5.37150918	     11.57325319	      5.96791786	      0.20199137	      7.41938709	      3.94960853	    -20.34586706	     16.39101384	     -5.00167598	     -5.48085514	      1.35291571	      5.46256159	      0.02361283	      4.79914354	      2.00526946	    -14.25380988	    -19.20059352	      7.59749933	      4.94512059	     17.62708700	    -20.54291204	     -4.50434455	     62.56515950	     90.00000001	      0.00000000	      0.00000000	     -9.18281655	     -7.20076145	      2.54294475	     29.84815138	     90.00000001	      0.00000000	      0.00000000
      0.03000000	      4.32685319	      7.08989004	     90.21174486	      0.45678916	      0.95485925	     -0.72236502	    -23.45131936	      4.53181953	     -5.46088122	     12.33510580	      5.96791786	      0.21528821	      7.21811995	      4.04865927	    -20.45846864	     16.48881801	     -4.86496674	     -5.11464424	      1.93359253	      5.46256159	      0.03374756	      4.81325368	      1.70412274	    -14.26078840	    -19.24798921	      7.45052888	      4.83236023	     17.81760432	    -20.42518046	     -4.56103901	     62.88388188	     90.00000001	      0.00000000	      0.00000000	     -9.39475957	     -7.30572965	      2.58042604	     29.63959805	     90.00000001	      0.00000000	      0.00000000
      0.04000000	      4.01503790	      6.92048312	     90.32822796	      0.45537437	      0.95253809	     -0.72286165	    -23.40064801	      3.96118621	     -6.68986731	     13.98581363	      5.96791786	      0.24409850	      7.50468560	      5.59276125	    -22.33739268	     17.01217029	     -4.22513399	     -3.82345414	      3.16046714	      5.46256159	      0.05516056	      4.07476118	     -1.37147713	    -14.34975058	    -18.97428161	      7.16854041	      4.69433041	     17.70863182	    -20.45400578	     -4.73123521	     63.29503159	     90.00000001	      0.00000000	      0.00000000	     -9.46130977	     -7.39570769	      3.03673421	     29.27074140	     90.00000001	      0.00000000	      0.00000000
